<svg width="80" height="80" viewBox="0 0 80 80" fill="none" xmlns="http://www.w3.org/2000/svg">
    <g opacity="0.7">
        <path d="M39.8102 79.6205C61.7968 79.6205 79.6205 61.7968 79.6205 39.8102C79.6205 17.8237 61.7968 0 39.8102 0C17.8236 0 0 17.8237 0 39.8102C0 61.7968 17.8236 79.6205 39.8102 79.6205Z" fill="url(#paint0_linear_292_424)" style="mix-blend-mode:hard-light"/>
    </g>
    <path d="M37.5962 21.763C27.6322 23.8487 21.5198 31.4454 21.5959 40.3513C21.6036 41.4855 21.0936 42.1705 20.203 42.1934C19.2895 42.2162 18.6958 41.5996 18.7034 40.4655C18.7339 32.1761 22.2506 25.706 29.4286 21.6336C37.7408 16.9219 45.954 17.6831 53.5431 23.4681C57.2805 26.3149 59.5717 30.2351 60.9038 34.7565C62.7611 41.0592 63.5223 47.4684 63.1493 54.0146C63.1112 54.753 63.0504 55.4914 62.959 56.2297C62.8448 57.204 62.213 57.7597 61.3757 57.676C60.5308 57.5922 60.0208 56.9681 60.0969 55.9633C60.3786 52.5532 60.4014 49.1583 60.0817 45.7481C59.7392 42.0487 58.9856 38.4483 57.859 34.9012C56.8847 31.826 55.3167 29.1313 53.0026 26.9163C48.2985 22.41 42.6961 20.8268 37.5809 21.763H37.5962ZM46.8903 47.5598C47.4155 53.7178 46.5097 59.6855 44.3403 65.4629C43.9369 66.5362 44.2337 67.3507 45.0558 67.6476C45.9007 67.952 46.6467 67.5334 47.0578 66.4906C47.9483 64.2374 48.6182 61.9234 49.0977 59.5561C50.2243 53.969 50.2624 48.3514 49.1891 42.7643C48.7324 40.3817 48.2833 37.9459 46.9816 35.807C43.9673 30.8593 36.5609 30.7755 33.3944 35.6015C31.7654 38.0829 31.7502 40.6558 32.5875 43.3656C34.0947 48.2372 34.049 53.1241 32.755 58.0337C32.1765 60.226 31.2326 62.266 30.1746 64.2603C29.5884 65.364 29.8396 66.3535 30.7835 66.6809C31.5523 66.9473 32.2754 66.5743 32.8007 65.6076C33.9424 63.4762 34.9168 61.2764 35.5409 58.9243C36.9187 53.7482 37.0329 48.5797 35.6551 43.3808C35.3659 42.2771 34.8711 41.2267 34.9472 40.0088C35.0995 37.4816 36.6675 35.6091 39.2784 35.0534C41.4097 34.5967 43.8303 35.7994 44.7894 37.8774C45.543 39.5216 45.8855 41.3028 46.2813 43.0611C46.6467 44.5378 46.7685 46.045 46.8979 47.5521L46.8903 47.5598ZM40.717 28.294C44.1881 28.4843 46.9664 30.06 49.25 32.6176C49.897 33.3483 50.7267 33.4473 51.3813 32.9373C52.0283 32.4349 52.0968 31.5672 51.5031 30.7984C50.445 29.4434 49.1967 28.2864 47.6972 27.4263C44.0282 25.3178 40.1385 24.7926 36.0586 25.9572C31.6893 27.2055 28.5456 29.9534 26.6426 34.0562C25.0137 37.5729 24.9985 41.1962 26.1022 44.8804C26.5513 46.3875 26.8634 47.9403 26.9776 49.5236C27.2668 53.7635 26.2164 57.6836 24.1612 61.3677C23.6207 62.3421 23.7806 63.1337 24.5417 63.5448C25.3029 63.9558 26.1859 63.6133 26.7187 62.7151C28.9947 58.8787 29.9843 54.715 29.9386 50.2696C29.9081 47.6968 29.3068 45.2381 28.7587 43.5026C26.7416 35.0382 33.0595 27.8754 40.717 28.2864V28.294ZM42.5287 15.0569C45.0482 15.3005 47.446 15.9628 49.8056 16.861C50.681 17.1883 51.4726 16.8153 51.7238 16.0846C52.0207 15.2244 51.6249 14.4632 50.7191 14.1055C44.249 11.5555 37.7027 11.2662 31.1032 13.5422C24.321 15.879 19.1221 20.1493 15.5902 26.4139C15.0573 27.3654 15.2096 28.1722 15.9479 28.6137C16.6634 29.04 17.5997 28.6975 18.1325 27.8221C19.1525 26.1475 20.2715 24.5566 21.6112 23.0951C25.3258 19.0456 29.9081 16.5717 35.2365 15.3843C37.6494 14.9732 40.0776 14.821 42.5287 15.0569ZM55.309 39.5673C55.172 39.0421 55.0426 38.5016 54.8143 38.0068C54.487 37.2913 53.8932 37.0629 53.132 37.2913C52.4013 37.5044 52.0892 38.0373 52.1425 38.7528C52.1806 39.2323 52.31 39.7043 52.4165 40.1762C53.7791 45.946 54.0074 51.7539 53.1625 57.6151C52.9113 59.3734 52.5231 61.0937 52.1273 62.8216C51.9065 63.7731 52.348 64.5647 53.1092 64.7398C53.9389 64.9301 54.6773 64.4201 54.9589 63.461C55.0122 63.2783 55.0579 63.088 55.1035 62.8977C56.8695 55.6664 57.0369 48.3895 55.6135 41.082C55.5146 40.5796 55.4308 40.0697 55.3014 39.5673H55.309ZM65.2426 36.7356C65.3644 37.8013 65.9276 38.3798 66.803 38.3341C67.6708 38.2809 68.1579 37.6186 68.1351 36.5529C68.1046 35.2209 67.7621 33.9497 67.3739 32.6861C65.6156 26.962 62.3653 22.2274 57.859 18.3377C56.938 17.546 56.0474 17.5537 55.4689 18.2387C54.8371 18.9923 55.0579 19.7915 56.0093 20.6212C60.5993 24.5794 63.705 29.451 65.0599 35.3959C65.1208 35.845 65.1893 36.2865 65.2426 36.7356ZM14.3646 51.2972C14.7681 52.2487 15.6891 52.5532 16.4884 52.066C17.1582 51.6626 17.3409 50.8938 16.9222 49.9271C15.6282 46.8975 15.0269 43.731 14.9127 40.4503C14.8442 38.5092 15.1411 36.6062 15.4912 34.7109C15.6663 33.767 15.2248 33.0515 14.3875 32.8688C13.5806 32.6937 12.9488 33.1276 12.6748 34.0334C12.5911 34.3074 12.5454 34.5967 12.4845 34.8783C11.7842 38.5244 11.8679 42.1629 12.5758 45.7938C12.9336 47.7044 13.6035 49.5084 14.3646 51.282V51.2972ZM40.3821 51.4571C40.3821 52.8196 40.8312 53.4742 41.7675 53.4666C42.8103 53.459 43.2746 52.8805 43.2822 51.4647C43.2822 50.3762 43.267 49.2801 43.1909 48.1992C42.993 45.3675 42.4906 42.5892 41.5772 39.9022C41.2423 38.9203 40.5039 38.5396 39.6361 38.8365C38.8673 39.1029 38.5629 39.9022 38.8217 40.8309C39.1414 41.9726 39.4154 43.1296 39.7123 44.279C40.2451 46.6463 40.3745 49.0441 40.3821 51.4571ZM22.8976 47.6435C22.6768 46.9432 22.1744 46.5854 21.4361 46.6615C20.6749 46.7453 20.0431 47.2096 20.1497 47.9632C20.614 51.2363 20.241 54.3496 18.8176 57.3487C18.4827 58.0566 18.8404 58.7797 19.594 59.0918C20.34 59.4039 20.9794 59.107 21.4437 58.4752C21.6112 58.2469 21.7482 57.9805 21.8624 57.714C23.0422 54.8063 23.5826 51.8072 23.0879 48.5493C23.0422 48.3286 23.0041 47.9708 22.8976 47.6359V47.6435ZM40.8921 57.9881C40.1081 57.9348 39.5905 58.3611 39.385 59.0766C38.8978 60.774 38.4106 62.4791 37.6723 64.0928C37.3374 64.8236 36.972 65.5467 36.7208 66.3003C36.4924 66.9929 36.6218 67.7009 37.345 68.0434C38.0985 68.4011 38.7912 68.2261 39.286 67.5029C39.4306 67.2898 39.5752 67.069 39.6818 66.8407C40.6714 64.7094 41.5163 62.5171 42.0872 60.226C42.1785 59.853 42.2699 59.4724 42.1861 59.0842C42.0339 58.3915 41.5848 58.0261 40.8997 57.9805L40.8921 57.9881Z" fill="url(#paint1_linear_292_424)" style="mix-blend-mode:color-burn"/>
    <defs>
        <linearGradient id="paint0_linear_292_424" x1="0" y1="39.8102" x2="79.6205" y2="39.8102" gradientUnits="userSpaceOnUse">
            <stop stop-color="#FFA2FF"/>
            <stop offset="0.14" stop-color="#F5A1F8"/>
            <stop offset="0.7" stop-color="#D09EDE"/>
            <stop offset="1" stop-color="#C39ED5"/>
        </linearGradient>
        <linearGradient id="paint1_linear_292_424" x1="12.5778" y1="45.7826" x2="67.9065" y2="34.6264" gradientUnits="userSpaceOnUse">
            <stop stop-color="#C700FF"/>
            <stop offset="1" stop-color="#3632FD"/>
        </linearGradient>
    </defs>
</svg>
