<svg width="233" height="36" viewBox="0 0 233 36" fill="none" xmlns="http://www.w3.org/2000/svg">
    <g filter="url(#filter0_d_292_410)">
        <path d="M50.6967 5.16309C55.3087 5.16309 58.6304 8.55142 58.6304 12.9078C58.6304 17.2643 55.3087 20.6526 50.6967 20.6526C46.0847 20.6526 42.7904 17.2643 42.7904 12.9078C42.7904 8.55142 46.0847 5.16309 50.6967 5.16309ZM50.6967 17.7752C53.5792 17.7752 55.6107 15.6777 55.6107 12.9347C55.6107 10.1918 53.5792 8.09426 50.6967 8.09426C47.8142 8.09426 45.7827 10.1918 45.7827 12.9347C45.7827 15.6777 47.8417 17.7752 50.6967 17.7752Z" fill="white"/>
        <path d="M69.2818 18.3132H63.5991L62.8854 20.4645H59.8931L64.9443 5.40527H68.0464L73.0702 20.4645H70.023L69.2818 18.3132ZM68.3484 15.4627L66.4542 9.7617L64.56 15.4627H68.3484Z" fill="white"/>
        <path d="M80.4551 7.98691C78.9726 7.98691 78.0392 8.76676 78.0392 9.78864C78.0392 10.434 78.451 10.8912 79.1099 11.1332C80.0982 11.4828 81.6081 11.2946 83.063 11.7248C85.0122 12.2896 86.2201 13.7686 86.2201 15.7855C86.2201 18.636 83.9964 20.7066 80.6198 20.7066C77.2431 20.7066 74.9097 18.7435 74.9097 15.893H77.902C77.902 17.0762 79.0824 17.883 80.6472 17.883C82.212 17.883 83.2278 17.0494 83.2278 15.9468C83.2278 15.1938 82.7336 14.7367 82.1297 14.5215C81.1414 14.172 79.5217 14.2795 78.1491 13.903C76.1176 13.3383 75.0195 11.8324 75.0195 9.9231C75.0195 7.18016 77.2431 5.19019 80.4825 5.19019C83.7219 5.19019 85.973 7.07259 85.973 9.81553H82.9532C82.9532 8.68609 81.9375 7.98691 80.4551 7.98691Z" fill="white"/>
        <path d="M89.3496 5.40527H92.3694V20.4645H89.3496V5.40527Z" fill="white"/>
        <path d="M101.099 7.98691C99.6169 7.98691 98.6835 8.76676 98.6835 9.78864C98.6835 10.434 99.0953 10.8912 99.7542 11.1332C100.742 11.4828 102.252 11.2946 103.707 11.7248C105.656 12.2896 106.864 13.7686 106.864 15.7855C106.864 18.636 104.641 20.7066 101.264 20.7066C97.8874 20.7066 95.554 18.7435 95.554 15.893H98.5463C98.5463 17.0762 99.7267 17.883 101.292 17.883C102.856 17.883 103.872 17.0494 103.872 15.9468C103.872 15.1938 103.378 14.7367 102.774 14.5215C101.786 14.172 100.166 14.2795 98.7933 13.903C96.7619 13.3383 95.6638 11.8324 95.6638 9.9231C95.6638 7.18016 97.8874 5.19019 101.127 5.19019C104.366 5.19019 106.617 7.07259 106.617 9.81553H103.598C103.598 8.68609 102.582 7.98691 101.099 7.98691Z" fill="white"/>
        <path d="M129.128 5.40527V20.4645H126.136L119.712 10.6222V20.4645H116.72V5.40527H119.712L126.136 15.2476V5.40527H129.128Z" fill="white"/>
        <path d="M132.999 5.40527H144.941V8.28267H135.991V11.429H140.96V14.3064H135.991V17.5334H144.941V20.4108H132.999V5.40527Z" fill="white"/>
        <path d="M151.721 8.28267H147.247V5.40527H159.189V8.28267H154.714V20.4645H151.694L151.721 8.28267Z" fill="white"/>
        <path d="M180.986 5.40527L176.593 20.4645H173.409L170.938 12.1282L168.495 20.4645H165.338L160.918 5.40527H164.02L166.957 15.9199L169.895 5.40527H172.009L174.919 15.8123L177.938 5.40527H180.986Z" fill="white"/>
        <path d="M190.347 5.16309C194.959 5.16309 198.281 8.55142 198.281 12.9078C198.281 17.2643 194.959 20.6526 190.347 20.6526C185.735 20.6526 182.441 17.2643 182.441 12.9078C182.441 8.55142 185.735 5.16309 190.347 5.16309ZM190.347 17.7752C193.23 17.7752 195.261 15.6777 195.261 12.9347C195.261 10.1918 193.23 8.09426 190.347 8.09426C187.465 8.09426 185.433 10.1918 185.433 12.9347C185.433 15.6777 187.492 17.7752 190.347 17.7752Z" fill="white"/>
        <path d="M207.313 15.9737H204.485V20.4377H201.465V5.37842H207.999C211.238 5.37842 213.544 7.61042 213.544 10.6761C213.544 12.8274 212.391 14.6022 210.552 15.409L213.846 20.4108H210.305L207.313 15.9737ZM204.485 13.1232H208.054C209.536 13.1232 210.552 12.1013 210.552 10.7029C210.552 9.30458 209.536 8.2827 208.081 8.2827H204.513L204.485 13.1232Z" fill="white"/>
        <path d="M225.212 20.4645L219.913 13.6341V20.4645H216.894V5.40527H219.913V12.1819L225.212 5.40527H228.918L223.015 12.8542L229 20.4645H225.212Z" fill="white"/>
        <path fill-rule="evenodd" clip-rule="evenodd" d="M29.0641 5.4052C26.9502 2.76983 23.8755 1.10255 20.444 1.10255C13.828 1.10255 8.99634 7.12626 8.99634 13.6609C8.99634 18.2056 12.071 21.6208 15.5026 21.6208C15.832 21.6208 16.134 21.5939 16.4634 21.5401C14.1574 19.8728 12.675 16.861 12.675 13.634C12.675 8.47083 16.2438 4.46399 20.444 4.46399C25.0286 4.46399 28.213 8.92799 28.213 13.634C28.213 17.1299 26.9228 20.5989 24.6991 23.1536C22.75 25.3856 20.2244 26.8109 17.4517 27.2411C17.4517 27.2411 17.6713 27.268 17.9733 27.268C25.66 27.268 31.8917 21.1636 31.8917 13.634C31.8917 10.5415 30.8485 7.69098 29.0641 5.4052ZM26.9502 13.634C26.9502 9.08934 23.8755 5.67411 20.444 5.67411C20.1146 5.67411 19.8126 5.70101 19.4832 5.75479C21.7892 7.39517 23.2441 10.3801 23.2441 13.634C23.2441 18.7972 19.6753 22.804 15.4751 22.804C10.8906 22.804 7.70608 18.34 7.70608 13.634C7.70608 10.1381 8.99634 6.6691 11.22 4.11441C13.1691 1.88241 15.6947 0.457156 18.4674 0.0268915C18.4674 0.0268915 18.2478 0 17.9184 0C10.2317 0 4 6.10438 4 13.634C4 16.7265 5.04319 19.577 6.8276 21.8628C8.94143 24.4982 12.0436 26.1655 15.4477 26.1655C22.1186 26.1924 26.9502 20.1687 26.9502 13.634Z" fill="white"/>
    </g>
    <defs>
        <filter id="filter0_d_292_410" x="0" y="0" width="233" height="35.268" filterUnits="userSpaceOnUse" color-interpolation-filters="sRGB">
            <feFlood flood-opacity="0" result="BackgroundImageFix"/>
            <feColorMatrix in="SourceAlpha" type="matrix" values="0 0 0 0 0 0 0 0 0 0 0 0 0 0 0 0 0 0 127 0" result="hardAlpha"/>
            <feOffset dy="4"/>
            <feGaussianBlur stdDeviation="2"/>
            <feComposite in2="hardAlpha" operator="out"/>
            <feColorMatrix type="matrix" values="0 0 0 0 0 0 0 0 0 0 0 0 0 0 0 0 0 0 0.25 0"/>
            <feBlend mode="normal" in2="BackgroundImageFix" result="effect1_dropShadow_292_410"/>
            <feBlend mode="normal" in="SourceGraphic" in2="effect1_dropShadow_292_410" result="shape"/>
        </filter>
    </defs>
</svg>
