<svg width="157" height="31" viewBox="0 0 157 31" fill="none" xmlns="http://www.w3.org/2000/svg">
<g clip-path="url(#clip0_5_303)">
<path d="M26.6705 4.65841C25.3626 3.325 23.8162 2.22803 22.1036 1.43139C22.0334 1.39518 21.9631 1.36323 21.8906 1.33128C21.5541 1.18005 21.2133 1.03733 20.8661 0.91166C19.8905 0.558072 18.8702 0.298205 17.8159 0.144842C17.0789 0.0383398 16.3248 -0.0213013 15.558 -0.0213013C6.97392 -0.0213013 -0.010498 6.96312 -0.010498 15.5472C-0.010498 22.2356 4.2283 27.9505 10.1626 30.1508C10.8613 30.4085 11.5812 30.6194 12.3225 30.7749C13.3683 30.9964 14.4504 31.1157 15.5601 31.1157C21.4732 31.1157 26.6279 27.8014 29.2627 22.9321C30.4534 20.7339 31.1308 18.2162 31.1308 15.5451C31.1308 11.3084 29.4289 7.46369 26.6747 4.65415L26.6705 4.65841ZM4.63088 23.88C2.79052 21.4538 1.81921 18.5591 1.81921 15.5089C1.81921 10.3009 4.70756 5.75326 8.96552 3.38677C9.07841 3.325 9.18917 3.47411 9.09545 3.56144C8.70565 3.92781 8.33289 4.31973 7.97718 4.73722C5.50845 7.62344 4.08771 11.5491 4.07493 15.511C4.07493 20.6529 7.51496 26.2038 13.0722 26.2038C18.031 26.2038 22.0674 21.407 22.0674 15.511C22.0674 12.7398 21.1387 10.0794 19.5519 8.10696C19.4965 8.03667 19.5625 7.93869 19.6477 7.96425C22.3294 8.75663 24.3338 11.8409 24.3338 15.5131C24.3338 18.7551 23.158 21.9821 21.1068 24.3677C18.981 26.8407 16.1267 28.2039 13.0722 28.2039C9.85588 28.2039 6.77583 26.6256 4.63088 23.8842V23.88ZM26.7301 7.14205C28.5683 9.56178 29.5375 12.4544 29.5354 15.5025C29.5354 20.7105 26.647 25.2581 22.3891 27.6267C22.2762 27.6885 22.1654 27.5394 22.2591 27.452C22.6489 27.0857 23.0217 26.6937 23.3774 26.2763C25.8461 23.39 27.2669 19.4644 27.2797 15.5025C27.2797 10.3606 23.8396 4.80964 18.2823 4.80964C13.3236 4.80964 9.28716 9.60652 9.28716 15.5025C9.28716 18.2737 10.2159 20.9341 11.8027 22.9086C11.8581 22.9789 11.7921 23.0769 11.7069 23.0514C9.02516 22.259 7.02079 19.1768 7.02079 15.5067C7.02079 12.2648 8.19657 9.03779 10.2478 6.65426C12.3736 4.18128 15.2279 2.81805 18.2845 2.81805C21.4987 2.81805 24.5766 4.39429 26.7301 7.14205ZM20.4401 15.5067C20.4401 19.1789 18.6551 22.3484 16.099 23.7713C15.7817 23.9481 15.3919 23.9247 15.0979 23.7117L14.5505 23.3134C12.3076 21.6775 10.9145 18.6848 10.9145 15.5025C10.9145 11.8303 12.6995 8.66077 15.2555 7.2379C15.5729 7.06111 15.9627 7.08454 16.2567 7.29754L16.8041 7.69586C19.047 9.33174 20.4401 12.3244 20.4401 15.5046V15.5067Z" fill="white"/>
<path d="M44.0431 10.8337C43.3487 10.3885 42.535 10.167 41.6063 10.167C40.6776 10.167 39.8618 10.3885 39.161 10.8337C38.4602 11.2789 37.9192 11.9136 37.5358 12.7422C37.1524 13.5708 36.9607 14.557 36.9607 15.7009C36.9607 16.8447 37.1524 17.816 37.5358 18.6446C37.9192 19.4732 38.4602 20.1101 39.161 20.5595C39.8618 21.0089 40.6755 21.2347 41.6063 21.2347C42.5372 21.2347 43.3487 21.0111 44.0431 20.5595C44.7375 20.1101 45.2785 19.471 45.6683 18.6446C46.056 17.816 46.2498 16.8362 46.2498 15.7009C46.2498 14.5655 46.056 13.558 45.6683 12.7358C45.2807 11.9136 44.7375 11.2789 44.0431 10.8358V10.8337ZM43.6384 17.6924C43.4403 18.2441 43.1634 18.6659 42.8098 18.9577C42.4583 19.2495 42.0558 19.3944 41.6063 19.3944C41.1569 19.3944 40.7522 19.2495 40.3965 18.9577C40.0386 18.6659 39.7596 18.2441 39.5615 17.6924C39.3613 17.1408 39.2633 16.4762 39.2633 15.7009C39.2633 14.9255 39.3634 14.2609 39.5615 13.7093C39.7596 13.1576 40.0386 12.7358 40.3965 12.444C40.7543 12.1522 41.1569 12.0074 41.6063 12.0074C42.0558 12.0074 42.4562 12.1522 42.8098 12.444C43.1634 12.7358 43.4382 13.1533 43.6384 13.7007C43.8386 14.2482 43.9366 14.9149 43.9366 15.7009C43.9366 16.4868 43.8365 17.1408 43.6384 17.6924Z" fill="white"/>
<path d="M50.2246 10.719L47.5982 20.4213C47.513 20.7387 47.7516 21.0497 48.0775 21.0497H49.2511C49.4769 21.0497 49.675 20.8963 49.7325 20.6791L50.1351 19.1518C50.1926 18.9324 50.3907 18.7812 50.6165 18.7812H53.294C53.5219 18.7812 53.72 18.9346 53.7753 19.154L54.1694 20.6769C54.2269 20.8963 54.425 21.0497 54.6508 21.0497H55.882C56.21 21.0497 56.4486 20.7387 56.3612 20.4213L53.72 10.719C53.6603 10.5017 53.4644 10.3526 53.2407 10.3526H50.7059C50.4823 10.3526 50.2842 10.5038 50.2267 10.7211L50.2246 10.719ZM51.3599 16.943C51.034 16.943 50.7954 16.6341 50.8785 16.3189L51.3194 14.6446L51.4792 13.9779C51.6006 13.4689 52.3248 13.4689 52.4462 13.9779L52.606 14.6446L53.0383 16.321C53.1193 16.6362 52.8829 16.943 52.557 16.943H51.3577H51.3599Z" fill="white"/>
<path d="M68.364 10.8486V11.6921C68.364 11.9669 68.5877 12.1906 68.8624 12.1906H69.6612C69.936 12.1906 70.1596 12.4142 70.1596 12.689V18.7128C70.1596 18.9875 69.936 19.2112 69.6612 19.2112H68.8624C68.5877 19.2112 68.364 19.4349 68.364 19.7096V20.5531C68.364 20.8279 68.5877 21.0516 68.8624 21.0516H73.6764C73.9511 21.0516 74.1748 20.8279 74.1748 20.5531V19.7096C74.1748 19.4349 73.9511 19.2112 73.6764 19.2112H72.8776C72.6028 19.2112 72.3791 18.9875 72.3791 18.7128V12.689C72.3791 12.4142 72.6028 12.1906 72.8776 12.1906H73.6764C73.9511 12.1906 74.1748 11.9669 74.1748 11.6921V10.8486C74.1748 10.5739 73.9511 10.3502 73.6764 10.3502H68.8624C68.5877 10.3502 68.364 10.5739 68.364 10.8486Z" fill="white"/>
<path d="M84.2477 16.536C84.039 16.1419 83.7621 15.8267 83.4191 15.586C83.0762 15.3453 82.7034 15.1578 82.3009 15.0194C81.8961 14.8809 81.4914 14.7638 81.0825 14.6679C80.6735 14.5721 80.2986 14.4677 79.9557 14.3612C79.6127 14.2547 79.3401 14.1141 79.1356 13.9394C78.9311 13.7669 78.8289 13.5369 78.8289 13.2493C78.8289 12.851 78.9801 12.5443 79.2804 12.3291C79.5808 12.114 79.9621 12.0075 80.4222 12.0075C80.7395 12.0075 81.0377 12.0607 81.304 12.1992C81.6555 12.3845 81.8961 12.6678 82.0303 12.8701C82.1219 13.0086 82.2774 13.0895 82.4436 13.0895H83.7855C84.1327 13.0895 84.3819 12.7402 84.252 12.4164C84.1604 12.1864 84.0454 11.9734 83.9027 11.7774C83.5256 11.2556 83.0315 10.8573 82.4244 10.5825C81.8173 10.3056 81.1506 10.1693 80.4243 10.1693C79.6383 10.1693 78.9524 10.3077 78.3709 10.5825C77.7894 10.8573 77.3357 11.2343 77.0141 11.7093C76.6924 12.1843 76.5306 12.7189 76.5306 13.3111C76.5306 13.9032 76.6328 14.3548 76.8373 14.7276C77.0418 15.1003 77.3144 15.4006 77.6574 15.6243C78.0003 15.8501 78.3752 16.0333 78.7841 16.176C79.1931 16.3187 79.6 16.4422 80.0025 16.5445C80.4072 16.6467 80.78 16.7575 81.1208 16.8746C81.4638 16.9918 81.7364 17.143 81.9409 17.3262C82.1454 17.5094 82.2476 17.7543 82.2476 18.0611C82.2476 18.4807 82.0921 18.8066 81.7811 19.043C81.4701 19.2773 81.0526 19.3945 80.5329 19.3945C79.8896 19.3945 79.3997 19.2049 79.061 18.8279C78.9205 18.6703 78.8118 18.4807 78.733 18.2613C78.6542 18.0419 78.4561 17.9013 78.2261 17.9013H77.0183C76.6861 17.9013 76.4496 18.2187 76.5391 18.5382C76.62 18.8279 76.7287 19.1005 76.8671 19.3498C77.2037 19.9526 77.685 20.4169 78.307 20.7449C78.9311 21.0708 79.6724 21.2348 80.5287 21.2348C81.3061 21.2348 81.9984 21.0985 82.6054 20.828C83.2125 20.5575 83.6918 20.1847 84.039 19.7097C84.3862 19.2347 84.5608 18.6809 84.5608 18.0462C84.5608 17.4114 84.4565 16.93 84.2456 16.536H84.2477Z" fill="white"/>
<path d="M65.9123 16.536C65.7035 16.1419 65.4266 15.8267 65.0837 15.586C64.7407 15.3453 64.368 15.1578 63.9654 15.0194C63.5607 14.8809 63.156 14.7638 62.747 14.6679C62.338 14.5721 61.9632 14.4677 61.6202 14.3612C61.2773 14.2547 61.0046 14.1141 60.8002 13.9394C60.5957 13.7669 60.4934 13.5369 60.4934 13.2493C60.4934 12.851 60.6447 12.5443 60.945 12.3291C61.2453 12.114 61.6266 12.0075 62.0867 12.0075C62.4041 12.0075 62.7023 12.0607 62.9685 12.1992C63.32 12.3845 63.5607 12.6678 63.6949 12.8701C63.7865 13.0086 63.942 13.0895 64.1081 13.0895H65.45C65.7972 13.0895 66.0465 12.7402 65.9165 12.4164C65.8249 12.1864 65.7099 11.9734 65.5672 11.7774C65.1902 11.2556 64.696 10.8573 64.089 10.5825C63.4819 10.3056 62.8152 10.1693 62.0888 10.1693C61.3028 10.1693 60.617 10.3077 60.0355 10.5825C59.454 10.8573 59.0003 11.2343 58.6786 11.7093C58.357 12.1843 58.1951 12.7189 58.1951 13.3111C58.1951 13.9032 58.2974 14.3548 58.5018 14.7276C58.7063 15.1003 58.979 15.4006 59.3219 15.6243C59.6648 15.8501 60.0397 16.0333 60.4487 16.176C60.8577 16.3187 61.2645 16.4422 61.6671 16.5445C62.0718 16.6467 62.4446 16.7575 62.7854 16.8746C63.1283 16.9918 63.4009 17.143 63.6054 17.3262C63.8099 17.5094 63.9122 17.7543 63.9122 18.0611C63.9122 18.4807 63.7567 18.8066 63.4457 19.043C63.1347 19.2795 62.7172 19.3945 62.1975 19.3945C61.5542 19.3945 61.0643 19.2049 60.7256 18.8279C60.585 18.6703 60.4764 18.4807 60.3976 18.2613C60.3188 18.0462 60.1207 17.9013 59.8906 17.9013H58.6829C58.3506 17.9013 58.1142 18.2187 58.2036 18.5382C58.2846 18.8279 58.3932 19.1005 58.5317 19.3498C58.8682 19.9526 59.3496 20.4169 59.9716 20.7449C60.5957 21.0708 61.3369 21.2348 62.1932 21.2348C62.9707 21.2348 63.6629 21.0985 64.27 20.828C64.8771 20.5575 65.3563 20.1847 65.7035 19.7097C66.0507 19.2347 66.2254 18.6809 66.2254 18.0462C66.2254 17.4114 66.121 16.93 65.9101 16.536H65.9123Z" fill="white"/>
<path d="M89.0466 20.7658V10.6353C89.0466 10.4776 89.1744 10.3499 89.3321 10.3499H90.1117C90.2118 10.3499 90.3055 10.4031 90.3566 10.4904L95.1514 18.6485C95.3005 18.902 95.6903 18.7891 95.6817 18.4951L95.6242 16.6974V10.6353C95.6242 10.4776 95.752 10.3499 95.9096 10.3499H96.3527C96.5103 10.3499 96.6381 10.4776 96.6381 10.6353V20.7658C96.6381 20.9234 96.5103 21.0512 96.3527 21.0512H95.588C95.4879 21.0512 95.3942 20.9979 95.343 20.9127L90.5334 12.8058C90.3843 12.5523 89.9945 12.6652 90.0052 12.9592L90.0605 14.6888V20.7658C90.0605 20.9234 89.9327 21.0512 89.7751 21.0512H89.3321C89.1744 21.0512 89.0466 20.9234 89.0466 20.7658Z" fill="white"/>
<path d="M99.1941 20.7658V10.6353C99.1941 10.4776 99.3219 10.3499 99.4795 10.3499H106.421C106.579 10.3499 106.707 10.4776 106.707 10.6353V10.9867C106.707 11.1444 106.579 11.2722 106.421 11.2722H100.491C100.334 11.2722 100.206 11.4 100.206 11.5576V14.759C100.206 14.9167 100.334 15.0445 100.491 15.0445H104.551C104.709 15.0445 104.837 15.1723 104.837 15.3299V15.6814C104.837 15.839 104.709 15.9668 104.551 15.9668H100.491C100.334 15.9668 100.206 16.0946 100.206 16.2522V19.852C100.206 20.0096 100.334 20.1374 100.491 20.1374H106.483C106.641 20.1374 106.769 20.2652 106.769 20.4228V20.7743C106.769 20.9319 106.641 21.0597 106.483 21.0597H99.4795C99.3219 21.0597 99.1941 20.9319 99.1941 20.7743V20.7658Z" fill="white"/>
<path d="M112.241 20.7658V11.5555C112.241 11.3978 112.113 11.27 111.955 11.27H108.86C108.703 11.27 108.575 11.1422 108.575 10.9846V10.6331C108.575 10.4755 108.703 10.3477 108.86 10.3477H116.646C116.803 10.3477 116.931 10.4755 116.931 10.6331V10.9846C116.931 11.1422 116.803 11.27 116.646 11.27H113.551C113.393 11.27 113.265 11.3978 113.265 11.5555V20.7658C113.265 20.9234 113.138 21.0512 112.98 21.0512H112.522C112.364 21.0512 112.237 20.9234 112.237 20.7658H112.241Z" fill="white"/>
<path d="M119.487 20.8065L118.064 10.676C118.041 10.5056 118.173 10.3522 118.345 10.3522H118.782C118.925 10.3522 119.044 10.4566 119.063 10.5972L120.088 17.9246L120.19 18.8554C120.211 19.0514 120.495 19.062 120.529 18.8682L120.701 17.9267L122.203 10.5823C122.231 10.4502 122.346 10.3544 122.482 10.3544H123.074C123.21 10.3544 123.325 10.4502 123.353 10.5823L124.84 17.9267L124.989 18.7787C125.023 18.9768 125.311 18.964 125.33 18.7659L125.409 17.9267L126.416 10.5993C126.435 10.4587 126.557 10.3544 126.697 10.3544H127.119C127.292 10.3544 127.426 10.5077 127.4 10.6781L125.977 20.8086C125.958 20.9492 125.837 21.0536 125.696 21.0536H124.765C124.629 21.0536 124.514 20.9577 124.486 20.8257L123.091 13.8498L123.053 13.6027C123.004 13.2853 122.546 13.2811 122.493 13.5984L122.45 13.8498L121.01 20.8278C120.982 20.9599 120.867 21.0557 120.731 21.0557H119.768C119.626 21.0557 119.506 20.9514 119.487 20.8108V20.8065Z" fill="white"/>
<path d="M132.704 21.2345C131.816 21.2345 131.043 21.0044 130.389 20.5443C129.735 20.0843 129.228 19.441 128.872 18.6124C128.514 17.7838 128.335 16.8146 128.335 15.7006C128.335 14.5866 128.514 13.6132 128.872 12.7803C129.23 11.9475 129.735 11.3042 130.389 10.8484C131.043 10.3947 131.814 10.1667 132.704 10.1667C133.595 10.1667 134.366 10.3947 135.02 10.8484C135.673 11.3021 136.178 11.9475 136.536 12.7803C136.894 13.6132 137.073 14.5866 137.073 15.7006C137.073 16.8146 136.894 17.7859 136.536 18.6124C136.178 19.441 135.673 20.0843 135.02 20.5443C134.366 21.0044 133.595 21.2345 132.704 21.2345ZM132.704 20.3143C133.369 20.3143 133.946 20.1226 134.436 19.7392C134.926 19.3558 135.307 18.8169 135.578 18.1225C135.848 17.4281 135.984 16.6208 135.984 15.7006C135.984 14.7804 135.848 13.9604 135.578 13.2702C135.307 12.5801 134.926 12.0433 134.436 11.6599C133.946 11.2765 133.369 11.0848 132.704 11.0848C132.04 11.0848 131.462 11.2765 130.972 11.6599C130.483 12.0433 130.101 12.5822 129.831 13.2766C129.56 13.971 129.424 14.7783 129.424 15.6985C129.424 16.6187 129.56 17.426 129.831 18.1203C130.101 18.8147 130.483 19.3536 130.972 19.737C131.462 20.1205 132.04 20.3122 132.704 20.3122V20.3143Z" fill="white"/>
<path d="M139.203 20.7659V10.6354C139.203 10.4778 139.331 10.35 139.488 10.35H139.931C140.089 10.35 140.217 10.4778 140.217 10.6354V20.7659C140.217 20.9236 140.089 21.0514 139.931 21.0514H139.488C139.331 21.0514 139.203 20.9236 139.203 20.7659ZM139.925 15.967V15.6304C139.925 15.4728 140.053 15.345 140.21 15.345H142.839C143.391 15.345 143.876 15.2577 144.296 15.0851C144.715 14.9105 145.048 14.6634 145.293 14.3417C145.538 14.0201 145.661 13.6452 145.661 13.2149C145.661 12.7847 145.555 12.4588 145.34 12.1733C145.124 11.8879 144.839 11.6643 144.481 11.5066C144.123 11.349 143.729 11.2681 143.301 11.2681H140.213C140.055 11.2681 139.927 11.1403 139.927 10.9826V10.6312C139.927 10.4736 140.055 10.3458 140.213 10.3458H143.301C143.955 10.3458 144.543 10.4587 145.065 10.6823C145.587 10.9081 145.998 11.234 146.298 11.6643C146.601 12.0945 146.75 12.61 146.75 13.2128C146.75 13.6111 146.66 13.9924 146.481 14.3545C146.302 14.7166 146.045 15.0425 145.708 15.3279C145.371 15.6134 144.96 15.8392 144.475 16.0032C143.989 16.1672 143.44 16.2481 142.826 16.2481H140.213C140.055 16.2481 139.927 16.1203 139.927 15.9627L139.925 15.967ZM145.793 21.0514C145.661 21.0514 145.548 20.9598 145.516 20.8298C145.414 20.4081 145.269 19.9949 145.082 19.5944C144.862 19.1237 144.573 18.6721 144.215 18.2376C143.857 17.8031 143.42 17.3941 142.905 17.0107C142.558 16.7529 142.172 16.5037 141.746 16.263C141.52 16.1352 141.563 15.7987 141.816 15.7369L142.123 15.6624C142.189 15.6475 142.259 15.6538 142.319 15.6837C143.014 16.0287 143.608 16.3993 144.102 16.7955C144.617 17.2088 145.048 17.6433 145.389 18.0991C145.731 18.555 145.996 19.0257 146.185 19.5177C146.334 19.9012 146.445 20.2995 146.522 20.7084C146.554 20.8852 146.424 21.0514 146.243 21.0514H145.791H145.793Z" fill="white"/>
<path d="M149.167 20.7658V10.6353C149.167 10.4776 149.295 10.3499 149.453 10.3499H149.896C150.053 10.3499 150.181 10.4776 150.181 10.6353V13.4618L150.162 14.8251C150.158 15.0828 150.473 15.2127 150.652 15.0253L151.67 13.9667L155.189 10.4329C155.242 10.3797 155.315 10.3499 155.391 10.3499H155.958C156.211 10.3499 156.337 10.6544 156.16 10.8334L150.266 16.8124C150.213 16.8657 150.185 16.9381 150.185 17.0126V20.7658C150.185 20.9234 150.058 21.0512 149.9 21.0512H149.457C149.299 21.0512 149.172 20.9234 149.172 20.7658H149.167ZM155.689 20.9341L151.425 15.151C151.331 15.0232 151.359 14.8421 151.489 14.7505L151.868 14.4821C151.994 14.3927 152.168 14.4204 152.262 14.546L156.729 20.5975C156.867 20.7849 156.733 21.0512 156.501 21.0512H155.919C155.83 21.0512 155.745 21.0086 155.692 20.9362L155.689 20.9341Z" fill="white"/>
</g>
<defs>
<clipPath id="clip0_5_303">
<rect width="157" height="31" fill="white"/>
</clipPath>
</defs>
</svg>
